<?xml version="1.0" encoding="utf-8"?>
<!-- Svg Vector Icons : http://www.onlinewebfonts.com/icon -->
<!DOCTYPE svg PUBLIC "-//W3C//DTD SVG 1.1//EN" "http://www.w3.org/Graphics/SVG/1.1/DTD/svg11.dtd">
<svg version="1.1" xmlns="http://www.w3.org/2000/svg" xmlns:xlink="http://www.w3.org/1999/xlink" x="0px" y="0px" viewBox="0 0 1000 1000" enable-background="new 0 0 1000 1000" xml:space="preserve">
<metadata> Svg Vector Icons : http://www.onlinewebfonts.com/icon </metadata>
<g><path fill="white" d="M733.6,500.1L980.8,253c12.3-12.2,12.3-32.3,0-44.7L792.1,19.5c-12.4-12.4-32.4-12.4-44.8,0L500.1,266.6L253.1,19.3c-12.2-12.4-32.3-12.4-44.7,0L19.5,208c-12.3,12.4-12.3,32.4,0,44.8L266.6,500L19.3,747.2c-12.4,12.4-12.4,32.2,0,44.6l188.7,189c12.4,12.2,32.3,12.2,44.7,0L500,733.6l247.1,247.2c12.4,12.2,32.4,12.2,44.8,0l188.8-188.7c12.4-12.4,12.4-32.4,0-44.8L733.6,500.1z"/></g>
</svg>