<?xml version="1.0" encoding="utf-8"?>
<!-- Svg Vector Icons : http://www.onlinewebfonts.com/icon -->
<!DOCTYPE svg PUBLIC "-//W3C//DTD SVG 1.1//EN" "http://www.w3.org/Graphics/SVG/1.1/DTD/svg11.dtd">
<svg version="1.1" xmlns="http://www.w3.org/2000/svg" xmlns:xlink="http://www.w3.org/1999/xlink" x="0px" y="0px" viewBox="0 0 1000 1000" enable-background="new 0 0 1000 1000" xml:space="preserve">
<metadata> Svg Vector Icons : http://www.onlinewebfonts.com/icon </metadata>
<g><g transform="translate(0.000000,511.000000) scale(0.100000,-0.100000)"><path fill="#8e05c2" d="M2355.8,4367.4c-158.9-17.2-396.4-68.9-522.7-114.9C996.3,3953.8,393.2,3199.4,182.5,2188.4c-93.8-450-109.1-963.1-38.3-1302.1C387.4-297,1519-1669.9,3418.5-3086.8c501.7-373.4,1166.1-825.3,1503.1-1020.6l86.2-49.8l296.8,193.4c1068.4,689.3,2096.7,1503.1,2853,2255.6C9321.7-551.7,9900,476.5,9900,1393.7c0,538-118.7,1104.8-325.5,1543.3c-256.6,549.5-704.6,999.5-1204.4,1215.9c-1173.7,505.5-2473.9-11.5-3190-1265.7c-67-118.7-132.1-245.1-143.6-279.6c-13.4-36.4-28.7-65.1-34.5-65.1c-7.7,0-63.2,97.7-122.6,216.4c-329.3,649.1-762.1,1099.1-1326.9,1374.8C3165.7,4323.3,2731.1,4407.6,2355.8,4367.4z"/></g></g>
</svg>