<?xml version="1.0" encoding="utf-8"?>
<!-- Svg Vector Icons : http://www.onlinewebfonts.com/icon -->
<!DOCTYPE svg PUBLIC "-//W3C//DTD SVG 1.1//EN" "http://www.w3.org/Graphics/SVG/1.1/DTD/svg11.dtd">
<svg version="1.1" xmlns="http://www.w3.org/2000/svg" xmlns:xlink="http://www.w3.org/1999/xlink" x="0px" y="0px" viewBox="0 0 1000 1000" enable-background="new 0 0 1000 1000" xml:space="preserve">
<metadata> Svg Vector Icons : http://www.onlinewebfonts.com/icon </metadata>
<g><g transform="translate(0.000000,511.000000) scale(0.100000,-0.100000)"><path fill="#8e05c2" d="M245.8,4582.2v-427.8h388.9h388.9V110v-4044.4H634.7H245.8v-427.8V-4790H5000h4754.2v427.8v427.8h-388.9h-388.9V110v4044.5h388.9h388.9v427.8V5010H5000H245.8V4582.2z M2569.4,3615.8c0-443.3,5.8-575.5,36.9-735c44.7-246.9,114.7-468.6,198.3-637.8c68.1-134.2,762.2-1018.9,1083.1-1378.6c313.1-353.9,369.4-447.2,433.6-721.4c35-149.7,35-151.7-9.7-336.4c-54.4-221.7-130.3-344.2-402.5-653.4c-369.4-420-1050-1287.2-1110.3-1415.5c-165.3-353.9-219.7-637.8-233.3-1219.2l-11.7-453h-326.7h-328.6V110v4044.5H2235h334.4V3615.8z M8101.4,110v-4044.4h-330.5h-330.6v320.8c0,398.6-27.2,655.3-99.2,943.1c-93.3,369.4-153.6,472.5-641.7,1083.1C6462.2-1290,6203.6-977,6127.8-891.4c-328.6,367.5-387,464.7-449.2,733.1c-35,151.7-35,151.7,11.7,348.1c52.5,221.7,114.7,326.7,357.8,600.8c71.9,79.7,344.2,410.3,606.6,735c536.7,663.1,591.1,750.6,686.4,1131.7c81.7,322.8,105,591.1,95.3,1077.2l-7.8,420H7765h336.4V110z"/></g></g>
</svg>