<?xml version="1.0" encoding="utf-8"?>
<!-- Svg Vector Icons : http://www.onlinewebfonts.com/icon -->
<!DOCTYPE svg PUBLIC "-//W3C//DTD SVG 1.1//EN" "http://www.w3.org/Graphics/SVG/1.1/DTD/svg11.dtd">
<svg version="1.1" xmlns="http://www.w3.org/2000/svg" xmlns:xlink="http://www.w3.org/1999/xlink" x="0px" y="0px" viewBox="0 0 1000 1000" enable-background="new 0 0 1000 1000" xml:space="preserve">
<metadata> Svg Vector Icons : http://www.onlinewebfonts.com/icon </metadata>
<g><g transform="translate(0.000000,512.000000) scale(0.100000,-0.100000)"><path fill="white" d="M871.4,4407.5V3795h306.2h306.3v-239.3c0-920.7,312-1787.7,890-2476.8c426.8-507.2,1048.9-880.5,1565.7-934.1c116.8-11.5,151.2-44,44-44c-34.5,0-147.4-21-248.8-45.9c-761.8-195.2-1449-809.6-1868.1-1678.6c-256.5-534-382.8-1089.1-382.8-1692V-3555h-306.3H871.4v-612.5V-4780H3061h2187.8l-202.9,206.7c-315.8,317.8-534,671.9-671.8,1091c-99.5,308.2-124.4,474.7-122.5,855.6c0,440.2,36.4,614.4,229.7,1121.6l34.4,90l-130.2,145.5c-72.7,80.4-137.8,145.5-147.4,145.5c-7.7,0-491.9-543.6-1073.8-1209.7L2105.9-3543.5l-5.7,199.1c-24.9,805.8,289,1636.5,832.6,2201.2c292.8,306.2,537.8,468.9,867.1,578c164.6,53.6,204.8,59.3,430.7,61.3c273.7,1.9,403.9-26.8,664.2-145.5l130.2-59.3l91.9,86.1c51.7,47.9,162.7,139.7,250.7,202.9l157,116.8l-91.9,59.3c-256.5,164.6-648.9,313.9-890,338.8c-61.2,5.7-111,17.2-111,24.9s51.7,21.1,116.8,26.8c520.6,59.3,1131.2,424.9,1558,932.2c578,689.1,890,1556.1,890,2476.8V3795h306.3h306.3v612.5V5020H4240.1H871.4V4407.5z M6383.9,3557.7c0-691-202.9-1337.9-591.4-1887.3c-116.8-166.5-400-459.4-555.1-572.3c-407.7-302.4-840.2-419.2-1249.9-338.8c-390.5,76.6-706.3,260.3-1041.2,608.7c-551.3,572.3-849.8,1341.8-849.8,2189.7V3795h2143.7h2143.8V3557.7z"/><path fill="white" d="M3773.1,1354.6c248.8-331.1,459.4-602.9,467-602.9c7.7,0,218.2,271.8,467,602.9l451.7,602.9h-918.8h-918.7L3773.1,1354.6z"/><path fill="white" d="M6642.3-523.1c-1292-227.8-2084.4-1537-1682.5-2773.5C5201-4035.4,5817.3-4577.1,6604-4745.5c147.4-30.6,637.4-30.6,784.8,0c884.3,189.5,1527.4,832.6,1716.9,1716.9c30.6,147.4,30.6,637.4,0,784.8c-193.3,907.3-874.7,1569.5-1772.4,1722.7C7126.5-486.8,6847.1-486.8,6642.3-523.1z M6466.2-1484c174.2-86.1,321.6-241.2,426.8-449.8c45.9-93.8,84.2-181.8,84.2-197.2c0-15.3,9.6-26.8,19.1-26.8c11.5,0,19.1,11.5,19.1,26.8c0,15.3,38.3,103.3,86.1,197.2c101.4,204.8,271.8,379,444.1,461.3c95.7,44,135.9,51.7,283.3,51.7s187.6-7.7,281.4-51.7c143.6-67,271.8-199.1,346.4-356c59.4-124.4,61.3-135.9,61.3-377.1c-1.9-233.5-5.7-258.4-63.1-411.5c-183.8-484.2-627.8-976.2-1299.7-1443.2l-158.9-109.1l-139.7,95.7c-233.5,162.7-530.2,409.6-717.8,599.1c-583.8,591.4-800.1,1194.4-589.5,1651.8c47.8,105.3,153.1,233.5,245,298.6C5976.2-1394,6249.9-1378.7,6466.2-1484z"/></g></g>
</svg>