<?xml version="1.0" encoding="utf-8"?>
<!-- Svg Vector Icons : http://www.onlinewebfonts.com/icon -->
<!DOCTYPE svg PUBLIC "-//W3C//DTD SVG 1.1//EN" "http://www.w3.org/Graphics/SVG/1.1/DTD/svg11.dtd">
<svg version="1.1" xmlns="http://www.w3.org/2000/svg" xmlns:xlink="http://www.w3.org/1999/xlink" x="0px" y="0px" viewBox="0 0 1000 1000" enable-background="new 0 0 1000 1000" xml:space="preserve">
<metadata> Svg Vector Icons : http://www.onlinewebfonts.com/icon </metadata>
<g><path fill="#8e05c2" d="M493.5,10C222.9,13.6,6.4,236,10,506.6C13.7,777.1,236,993.6,506.5,990c270.6-3.6,487-226,483.4-496.6C986.4,222.9,764,6.4,493.5,10L493.5,10z M547.8,173.3c49.8,0,64.5,28.9,64.5,61.9c0,41.3-33.1,79.5-89.5,79.5c-47.2,0-69.6-23.8-68.3-62.9C454.5,218.7,482.2,173.3,547.8,173.3z M420.1,806.3c-34,0-59-20.6-35.2-111.5l39-161.1c6.8-25.8,7.9-36.2,0-36.2c-10.2,0-54.4,17.8-80.5,35.4l-17-27.9c82.8-69.1,178.1-109.7,218.9-109.7c34,0,39.7,40.3,22.7,102.2l-44.8,169.4c-7.9,29.9-4.5,40.3,3.4,40.3c10.2,0,43.7-12.4,76.6-38.3l19.2,25.8C542,775.3,454.1,806.3,420.1,806.3L420.1,806.3z"/></g>
</svg>