<?xml version="1.0" encoding="utf-8"?>
<!-- Svg Vector Icons : http://www.onlinewebfonts.com/icon -->
<!DOCTYPE svg PUBLIC "-//W3C//DTD SVG 1.1//EN" "http://www.w3.org/Graphics/SVG/1.1/DTD/svg11.dtd">
<svg version="1.1" xmlns="http://www.w3.org/2000/svg" xmlns:xlink="http://www.w3.org/1999/xlink" x="0px" y="0px" viewBox="0 0 1000 1000" enable-background="new 0 0 1000 1000" xml:space="preserve">
<metadata> Svg Vector Icons : http://www.onlinewebfonts.com/icon </metadata>
<g><path fill="#8e05c2" d="M500,10C229.3,10,10,229.3,10,500c0,270.7,219.3,490,490,490c270.7,0,490-219.3,490-490C990,229.3,770.7,10,500,10z M786.4,750.9c-0.9,1.1-5.7,7-7.4,8.7c-69.5,74.9-168.8,121.5-279,121.5c-210.6,0-381.1-170.5-381.1-381.1c0-111.1,47.5-211,123.3-280.7c0,0,6.1-5.9,7.8-7.2c5.4-4.1,12.4-6.8,20-6.8c18.1,0,32.7,14.6,32.7,32.7c0,2.4-2.8,15.9-2.8,15.9c-4.4,23.3-6.8,47.3-6.8,71.9c0,210.6,170.5,381.1,381.1,381.1c23.7,0,46.8-2.2,69.3-6.3l10.5-2.4c2.4-0.4,4.8-0.8,7.4-0.8c18.1,0,32.7,14.6,32.7,32.7C794,738.1,791.2,745.2,786.4,750.9z"/></g>
</svg>