<?xml version="1.0" encoding="utf-8"?>
<!-- Svg Vector Icons : http://www.onlinewebfonts.com/icon -->
<!DOCTYPE svg PUBLIC "-//W3C//DTD SVG 1.1//EN" "http://www.w3.org/Graphics/SVG/1.1/DTD/svg11.dtd">
<svg version="1.1" xmlns="http://www.w3.org/2000/svg" xmlns:xlink="http://www.w3.org/1999/xlink" x="0px" y="0px" viewBox="0 0 1000 1000" enable-background="new 0 0 1000 1000" xml:space="preserve">
<metadata> Svg Vector Icons : http://www.onlinewebfonts.com/icon </metadata>
<g><g transform="translate(0.000000,512.000000) scale(0.100000,-0.100000)"><path fill="white" d="M4660,5010.2c-734-70.9-1230.5-205.1-1811.2-492.5c-534.7-264.5-918-540.5-1326.3-952.5c-404.4-408.2-657.4-766.6-918-1291.8C87,1224.9-35.7,52,251.8-1090.3c164.8-659.3,504.1-1335.9,933.4-1868.7c201.2-249.2,615.2-651.6,858.6-835.6c659.3-494.5,1416.4-812.6,2242.4-941.1c356.5-55.6,1033-59.4,1379.9-9.6c847.1,124.6,1625.3,446.6,2305.7,956.4c228.1,170.6,649.7,578.8,837.6,810.7c448.5,552,787.7,1232.4,958.3,1926.2c103.5,425.5,134.2,695.7,132.3,1188.3c-1.9,481.1-36.4,783.9-141.8,1190.2c-168.7,665-504.1,1335.8-933.4,1866.7c-201.2,249.2-615.2,651.6-858.6,835.6c-870.1,651.6-1935.8,1004.3-2999.5,990.9C4834.4,5019.8,4696.4,5014,4660,5010.2z M5493.7,4389.2c960.2-99.7,1884-557.7,2589.3-1286c1937.7-2004.7,1496.9-5253.4-908.5-6687c-1508.4-898.9-3440.3-760.9-4841.3,343.1c-174.4,136.1-550.1,511.7-686.1,686.2C525.9-1132.5,403.2,812.9,1338.5,2348.1c460,755.1,1180.6,1381.9,1979.8,1723C4017.9,4368.1,4709.8,4469.7,5493.7,4389.2z"/><path fill="white" d="M3948.9,2524.4c-126.5-86.2-172.5-281.7-93.9-408.2c19.2-32.6,383.3-412.1,806.9-843.3c425.5-429.3,852.9-866.3,954.5-967.9l180.1-185.9l-956.4-969.8c-525.1-534.7-971.7-994.7-989-1021.5c-21.1-32.6-34.5-88.2-34.5-149.5c0-233.8,237.7-383.3,433.2-272.2C4359-2232.6,6461.5-93.7,6503.7-1.7c40.2,86.2,42.2,157.2,7.7,241.5c-30.7,70.9-2175.3,2259.7-2257.7,2303.8C4169.3,2587.6,4027.5,2578,3948.9,2524.4z"/></g></g>
</svg>