<?xml version="1.0" encoding="utf-8"?>
<!-- Svg Vector Icons : http://www.onlinewebfonts.com/icon -->
<!DOCTYPE svg PUBLIC "-//W3C//DTD SVG 1.1//EN" "http://www.w3.org/Graphics/SVG/1.1/DTD/svg11.dtd">
<svg version="1.1" xmlns="http://www.w3.org/2000/svg" xmlns:xlink="http://www.w3.org/1999/xlink" x="0px" y="0px" viewBox="0 0 1000 1000" enable-background="new 0 0 1000 1000" xml:space="preserve">
<metadata> Svg Vector Icons : http://www.onlinewebfonts.com/icon </metadata>
<g><g transform="translate(0.000000,512.000000) scale(0.100000,-0.100000)"><path fill="white" d="M4660,5010.2c-711.1-69-1219-205.1-1770.9-471.5c-529-256.8-881.6-504.1-1293.7-904.6c-444.7-433.1-716.8-806.9-990.9-1360.8C87,1224.9-35.7,52,251.8-1090.3c164.8-659.3,504.1-1335.9,933.4-1868.7c201.2-249.2,615.2-651.6,858.6-835.6c659.3-494.5,1416.4-812.6,2242.4-941.1c356.5-55.6,1033-59.4,1379.9-9.6c847.1,124.6,1625.3,446.6,2305.7,956.4c228.1,170.6,649.7,578.8,837.6,810.7c448.5,552,787.7,1232.4,958.3,1926.2c103.5,425.5,134.2,695.7,132.3,1188.3c-1.9,481.1-36.4,783.9-141.8,1190.2c-168.7,665-504.1,1335.8-933.4,1866.7c-201.2,249.2-615.2,651.6-858.6,835.6c-870.1,651.6-1935.8,1004.3-2999.5,990.9C4834.4,5019.8,4696.4,5014,4660,5010.2z M5409.3,4391.1c831.8-82.4,1609.9-396.7,2267.3-916.1c174.4-136.1,550-511.7,686.1-686.1c1123.1-1422.1,1243.8-3367.4,306.7-4904.6c-686.1-1127-1855.3-1878.3-3172-2041.2c-218.5-26.8-766.6-26.8-985.1,0c-1008.1,124.6-1895.5,569.2-2602.7,1305.2C420.5-1299.2,307.4,1090.8,1645.2,2788.9c138,174.4,513.6,550.1,688.1,688C3211,4166.9,4324.6,4498.5,5409.3,4391.1z"/><path fill="white" d="M5760.1,2528.2C5650.8,2466.9,3548.3,328,3506.2,236c-40.2-86.2-42.2-157.2-7.7-241.5c34.5-82.4,2198.3-2280.7,2275-2313.3c76.7-30.7,230-13.4,299,36.4c116.9,82.4,157.2,277.9,82.4,400.6c-19.2,34.5-387.2,417.8-816.5,852.9C4907.2-593.9,4479.8-158.8,4384-61.1l-170.6,176.3l956.4,969.8c525.1,534.7,971.7,998.6,990.9,1031.1C6300.5,2371.1,6011.1,2671.9,5760.1,2528.2z"/></g></g>
</svg>