<?xml version="1.0" encoding="utf-8"?>
<!-- Svg Vector Icons : http://www.onlinewebfonts.com/icon -->
<!DOCTYPE svg PUBLIC "-//W3C//DTD SVG 1.1//EN" "http://www.w3.org/Graphics/SVG/1.1/DTD/svg11.dtd">
<svg version="1.1" xmlns="http://www.w3.org/2000/svg" xmlns:xlink="http://www.w3.org/1999/xlink" x="0px" y="0px" viewBox="0 0 1000 1000" enable-background="new 0 0 1000 1000" xml:space="preserve">
<metadata> Svg Vector Icons : http://www.onlinewebfonts.com/icon </metadata>
<g><g><path fill="white" d="M794,10c54.1,0,100.3,19.1,138.6,57.4S990,151.9,990,206c0,54.1-19.1,100.3-57.4,138.6C894.3,382.9,848.1,402,794,402c-28.8,0-56.1-5.9-81.7-17.8c-25.6-11.9-47.7-28.4-66-49.6L397.8,459c2.8,13.5,4.2,27.2,4.2,41s-1.4,27.4-4.2,41l248.4,124.4c18.4-21.2,40.4-37.7,66-49.6c25.6-11.9,52.9-17.8,81.7-17.8c54.1,0,100.3,19.1,138.6,57.4C970.9,693.7,990,739.9,990,794c0,54.1-19.1,100.3-57.4,138.6S848.1,990,794,990c-54.1,0-100.3-19.1-138.6-57.4C617.1,894.3,598,848.1,598,794c0-13.8,1.4-27.4,4.2-41L353.8,628.6c-18.4,21.2-40.4,37.7-66,49.6C262.1,690.1,234.8,696,206,696c-54.1,0-100.3-19.1-138.6-57.4C29.1,600.3,10,554.1,10,500c0-54.1,19.1-100.3,57.4-138.6C105.7,323.1,151.9,304,206,304c28.8,0,56.1,5.9,81.7,17.8c25.6,11.9,47.7,28.4,66,49.6L602.2,247c-2.8-13.5-4.2-27.2-4.2-41c0-54.1,19.1-100.3,57.4-138.6C693.7,29.1,739.9,10,794,10z M206,402c-27.1,0-50.1,9.6-69.3,28.7C117.6,449.9,108,472.9,108,500c0,27.1,9.6,50.1,28.7,69.3c19.1,19.1,42.2,28.7,69.3,28.7c27.1,0,50.1-9.6,69.3-28.7c19.1-19.1,28.7-42.2,28.7-69.3c0-27.1-9.6-50.1-28.7-69.3S233.1,402,206,402z M794,696c-27.1,0-50.1,9.6-69.3,28.7C705.6,743.9,696,766.9,696,794c0,27.1,9.6,50.1,28.7,69.3c19.1,19.1,42.2,28.7,69.3,28.7c27.1,0,50.1-9.6,69.3-28.7c19.1-19.1,28.7-42.2,28.7-69.3c0-27.1-9.6-50.1-28.7-69.3C844.1,705.6,821.1,696,794,696z M794,108c-27.1,0-50.1,9.6-69.3,28.7C705.6,155.9,696,178.9,696,206c0,27.1,9.6,50.1,28.7,69.3c19.1,19.1,42.2,28.7,69.3,28.7c27.1,0,50.1-9.6,69.3-28.7c19.1-19.1,28.7-42.2,28.7-69.3c0-27.1-9.6-50.1-28.7-69.3C844.1,117.6,821.1,108,794,108z"/></g></g>
</svg>