<?xml version="1.0" encoding="utf-8"?>
<!-- Svg Vector Icons : http://www.onlinewebfonts.com/icon -->
<!DOCTYPE svg PUBLIC "-//W3C//DTD SVG 1.1//EN" "http://www.w3.org/Graphics/SVG/1.1/DTD/svg11.dtd">
<svg version="1.1" xmlns="http://www.w3.org/2000/svg" xmlns:xlink="http://www.w3.org/1999/xlink" x="0px" y="0px" viewBox="0 0 1000 1000" enable-background="new 0 0 1000 1000" xml:space="preserve">
<metadata> Svg Vector Icons : http://www.onlinewebfonts.com/icon </metadata>
<g><g><path fill="yellow" d="M800.7,372.2c-70.5-166.1-262.4-243.5-428.4-172.9c-166,70.6-243.5,262.4-172.9,428.5c70.5,166,262.3,243.5,428.4,172.9C793.8,730.1,871.2,538.3,800.7,372.2z M447.5,262.3c-148.3,63-224.2,224.5-184.7,375.9c-5.7-9.9-11-20-15.6-30.8c-59.4-139.6,5.7-300.9,145.4-360.3c61.6-26.2,127.4-28.1,186.8-10.1C535.4,236.2,490.6,244,447.5,262.3z M990,507.7c0-1.9-0.1-3.8-0.1-5.8c-22.9-11.5-49-39.7-73-78.5c8.7-44.7,23.1-80.4,40.4-99.3c-0.6-1.8-1.2-3.6-2-5.4c-26.4-2.2-62.7-19.6-100.7-48.2C844.1,224.2,843,184,851.8,159c-1.4-1.3-2.6-2.8-3.9-4.2c-24.4,8.1-62.9,6.7-107.3-3.8c-25.4-37.8-40.5-73.3-41.7-98.9c-1.8-0.8-3.5-1.5-5.3-2.2C673.4,67.1,635.5,80.3,588.4,87c-40.2-25.4-69.4-53.1-80.9-77c-1.9-0.1-3.8,0-5.8,0c-11.5,22.9-39.7,49.1-78.4,73.1c-44.7-8.6-80.4-23.1-99.3-40.4c-1.8,0.7-3.6,1.3-5.4,2c-2.1,26.4-19.6,62.6-48.2,100.7c-46.3,10.4-86.4,11.6-111.4,2.8c-1.4,1.3-2.8,2.6-4.2,3.9c8.1,24.4,6.6,62.8-3.8,107.2C113.3,285,77.9,300,52.2,301.1c-0.8,1.8-1.4,3.6-2.3,5.3C67,326.6,80.3,364.6,87,411.6C61.6,451.8,34,481,10,492.4c0,1.9,0.1,3.8,0,5.8c22.9,11.6,49.1,39.7,73.1,78.4c-8.7,44.7-23.1,80.4-40.4,99.3c0.8,1.9,1.4,3.7,2,5.4c26.4,2.1,62.7,19.6,100.7,48.1c10.4,46.3,11.6,86.5,2.7,111.5c1.4,1.4,2.7,2.9,4,4.2c24.4-8.1,62.9-6.7,107.2,3.8c25.5,37.8,40.6,73.3,41.7,98.9c1.7,0.8,3.5,1.4,5.3,2.2c20.2-17.1,58.1-30.3,105.2-37c40.2,25.4,69.4,53,80.8,77c1.9,0.1,3.8,0,5.8,0c11.5-22.9,39.8-49.1,78.4-73.1c44.7,8.7,80.4,23.1,99.4,40.4c1.8-0.7,3.6-1.3,5.3-2c2.2-26.4,19.7-62.6,48.2-100.7c46.3-10.4,86.5-11.6,111.5-2.8c1.3-1.3,2.7-2.5,4.1-3.9c-8.2-24.4-6.7-62.8,3.8-107.2c37.9-25.5,73.3-40.6,98.9-41.7c0.8-1.7,1.4-3.5,2.2-5.3c-17.1-20.2-30.4-58.1-37.1-105.2C938.4,548.2,966,519,990,507.7z M852.1,552.4c-1.2,8-2.4,16-4.1,23.9c-1.3,6.2-3.2,12.2-4.9,18.4c-1.3,4.9-2.5,9.8-4,14.6c-2.2,6.9-4.9,13.5-7.5,20.3c-1.6,3.9-2.9,8-4.6,11.9c-2.7,6.3-5.9,12.5-9,18.7c-2.1,4.2-4.1,8.5-6.3,12.6c-2.9,5.3-6.2,10.3-9.3,15.4c-3,4.8-6,9.8-9.1,14.4c-2.8,4-5.8,7.7-8.7,11.6c-4.1,5.5-8.2,11-12.7,16.3c-2.4,2.9-5.1,5.5-7.5,8.2c-5.3,5.9-10.6,11.7-16.2,17.1c-2.2,2.2-4.7,4.3-7.1,6.4c-6.1,5.6-12.2,11.2-18.7,16.3c-2.9,2.3-6.1,4.4-9,6.6c-6.2,4.6-12.2,9.2-18.7,13.4c-5.2,3.4-10.6,6.3-16,9.5c-4.5,2.6-8.9,5.4-13.5,7.9c-10.4,5.4-21,10.4-32,14.8c-22.7,9.1-45.6,15.7-68.8,20c-23.1,4.3-47,6.2-71.5,5.8c-12-0.3-23.8-1.2-35.4-2.5c-4.1-0.5-8.1-1.4-12.1-2c-7.3-1.1-14.6-2.1-21.7-3.8c-6.7-1.5-13.2-3.4-19.8-5.3c-4.4-1.2-8.8-2.2-13.1-3.7c-7.2-2.3-14.2-5.1-21.2-7.9c-3.7-1.4-7.4-2.7-11-4.3c-6.6-2.9-13-6.2-19.4-9.4c-4-2-8-3.8-11.8-5.9c-5.5-3.1-10.7-6.4-16-9.7c-4.6-2.9-9.3-5.6-13.8-8.8c-4.2-2.9-8.1-6-12.1-9.1c-5.3-4-10.6-7.9-15.7-12.2c-3.1-2.6-5.9-5.4-8.9-8.1c-5.6-5.2-11.2-10.2-16.5-15.6c-2.5-2.5-4.8-5.3-7.2-8c-5.3-5.8-10.6-11.6-15.5-17.8c-2.7-3.4-5.1-6.9-7.6-10.3c-4.3-5.7-8.5-11.3-12.4-17.3c-3.9-6-7.4-12.4-11-18.8c-2.1-3.6-4.3-7.1-6.3-10.8c-5.4-10.4-10.4-21.1-14.9-32.1c-9.1-22.7-15.8-45.7-20-68.8c-4.2-23-6.3-46.9-5.7-71.2c0.2-11.9,1.1-23.7,2.5-35.3c0.5-4.5,1.5-8.8,2.2-13.3c1.1-6.9,2.1-13.8,3.5-20.5c1.5-7,3.5-13.8,5.4-20.6c1.2-4.1,2.1-8.3,3.4-12.4c2.4-7.4,5.3-14.7,8.2-21.9c1.4-3.4,2.5-6.9,4-10.2c3-6.8,6.3-13.5,9.7-20.1c1.9-3.7,3.6-7.5,5.6-11.1c3.2-5.7,6.7-11.2,10.2-16.8c2.7-4.3,5.3-8.8,8.2-13c3.1-4.5,6.5-8.7,9.8-13c3.8-5,7.5-10,11.5-14.8c2.9-3.4,6-6.6,9-9.9c4.8-5.3,9.6-10.6,14.7-15.5c2.9-2.8,6-5.4,9-8.1c5.4-5,11-10,16.8-14.6c3.7-3,7.7-5.7,11.6-8.6c5.3-3.9,10.5-7.9,15.9-11.5c6.5-4.3,13.4-8.2,20.3-12c3.1-1.8,6.1-3.7,9.3-5.4c10.4-5.4,21.2-10.5,32.3-15c22.6-9.1,45.7-15.7,68.8-20c23.1-4.2,46.9-6.2,71.3-5.7c12,0.2,23.8,1.1,35.5,2.5c3.8,0.5,7.6,1.3,11.4,1.9c7.5,1.1,15.1,2.3,22.5,3.9c6.4,1.4,12.8,3.3,19.2,5.1c4.7,1.3,9.3,2.4,13.8,3.8c7.1,2.3,13.9,5,20.9,7.7c3.8,1.5,7.6,2.8,11.3,4.4c6.5,2.8,12.9,6.1,19.2,9.3c4,2,8.1,3.9,12,6c5.4,3,10.7,6.4,16,9.7c4.6,2.9,9.3,5.6,13.7,8.7c4.4,2.9,8.3,6.2,12.5,9.3c5.2,3.9,10.4,7.7,15.3,11.9c3.4,2.8,6.4,5.9,9.6,8.8c5.4,4.9,10.7,9.7,15.7,14.8c2.9,2.9,5.4,6.1,8.2,9.1c4.9,5.4,9.9,10.8,14.5,16.6c3.2,4,6.1,8.2,9.1,12.4c3.7,5,7.5,10,10.9,15.2c4.7,7.3,9.1,14.9,13.4,22.6c1.3,2.3,2.8,4.5,4,6.9c5.5,10.5,10.5,21.3,15,32.5c9.1,22.7,15.8,45.8,20,68.9c4.2,23.1,6.2,46.8,5.7,71.1c-0.2,12-1.1,23.9-2.5,35.6C853.3,545.8,852.5,549.1,852.1,552.4z"/></g><g></g><g></g><g></g><g></g><g></g><g></g><g></g><g></g><g></g><g></g><g></g><g></g><g></g><g></g><g></g></g>
</svg>