<?xml version="1.0" encoding="iso-8859-1"?>
<!-- Generator: Adobe Illustrator 19.0.0, SVG Export Plug-In . SVG Version: 6.00 Build 0)  -->
<svg version="1.1" id="Layer_1" xmlns="http://www.w3.org/2000/svg" xmlns:xlink="http://www.w3.org/1999/xlink" x="0px" y="0px"
	 viewBox="0 0 512 512" style="enable-background:new 0 0 512 512;" xml:space="preserve">
<rect x="186.765" y="211.248" style="fill:#F0DFC0;" width="138.48" height="274.526"/>
<rect x="186.765" y="211.248" style="fill:#E6CFA8;" width="32.486" height="274.526"/>
<rect x="247.422" y="139.839" style="fill:#A18D6C;" width="16.228" height="60.282"/>
<path style="fill:#E86F22;" d="M313.35,121.31c-3.484,7.735-8.178,13.448-13.404,17.623c-17.688,14.194-41.371,11.013-44.172,10.581
	c-3.548,0.552-42.323,5.766-57.587-28.204c-16.952-37.692,33.007-96.946,51.085-116.602c1.191-1.295,2.243-2.418,3.129-3.352
	c1.707-1.799,4.566-1.802,6.278-0.007c0.784,0.822,1.697,1.79,2.72,2.893c1.785,1.926,3.916,4.262,6.275,6.945
	C288.825,35.226,328.713,87.134,313.35,121.31z"/>
<path style="fill:#C9571E;" d="M299.946,138.933c-17.688,14.194-41.371,11.013-44.172,10.581
	c-3.548,0.552-42.323,5.767-57.587-28.204c-18.07-40.182,39.89-104.859,54.223-119.965c1.705-1.797,4.56-1.791,6.269,0.002
	c0.784,0.822,1.697,1.791,2.721,2.894c-17.364,24.277-60.552,92.142-23.184,120.617
	C257.861,139.831,280.483,141.702,299.946,138.933z"/>
<path style="fill:#6E76E5;" d="M406.856,487.433l-34.466,23.801c-0.723,0.499-1.581,0.767-2.459,0.767H142.07
	c-0.879,0-1.737-0.267-2.459-0.767l-34.466-23.801c-3.493-2.413-1.786-7.888,2.459-7.888h296.793
	C408.642,479.545,410.349,485.021,406.856,487.433z"/>
<path style="fill:#515BE0;" d="M194.27,512h-52.203c-0.879,0-1.737-0.267-2.459-0.767l-34.464-23.801
	c-3.493-2.413-1.786-7.888,2.459-7.888h39.671L194.27,512z"/>
<g>
	<rect x="186.765" y="381.639" style="fill:#FF9C33;" width="138.48" height="38.226"/>
	<path style="fill:#FF9C33;" d="M240.833,103.621c-1.342,0.844-2.823,1.244-4.295,1.244c-2.704,0-5.345-1.352-6.891-3.809
		c-2.37-3.797-1.223-8.806,2.575-11.187c32.964-20.632,21.107-71.143,17.05-85.163c1.191-1.295,2.243-2.418,3.129-3.352
		c1.707-1.799,4.566-1.802,6.278-0.007c0.784,0.822,1.697,1.79,2.72,2.893c1.785,1.926,3.916,4.262,6.275,6.945
		C272.877,35.28,276.945,81.021,240.833,103.621z"/>
</g>
<path style="fill:#FFF3DC;" d="M189.106,189.608h133.79c8.663,0,15.687,7.023,15.687,15.687v62.387
	c0,11.751-9.525,21.276-21.276,21.276h-9.376c-6.572,0-11.9-5.328-11.9-11.9l0,0c0-5.577-4.52-10.097-10.097-10.097h-7.212
	c-5.577,0-10.097,4.52-10.097,10.097v8.294c0,13.941-11.302,25.244-25.244,25.244h-5.049c-13.941,0-25.244-11.302-25.244-25.244
	V260.83c0-10.357-8.396-18.752-18.752-18.752l0,0c-11.551,0-20.916-9.364-20.916-20.916v-15.867
	C173.419,196.63,180.443,189.608,189.106,189.608z"/>
<path style="fill:#F0DFC0;" d="M266.459,290.966h1.536c-2.553,11.241-12.604,19.625-24.613,19.625h-5.052
	c-13.935,0-25.24-11.294-25.24-25.24v-24.526c0-10.354-8.395-18.749-18.749-18.749c-5.777,0-11.003-2.336-14.788-6.123
	c-3.787-3.787-6.134-9.023-6.134-14.789v-15.871c0-8.665,7.032-15.687,15.687-15.687h12.442v11.933
	c0,5.766,2.348,11.003,6.134,14.788c3.787,3.787,9.012,6.123,14.788,6.123c10.354,0,18.749,8.396,18.749,18.749v24.526
	C241.219,279.672,252.524,290.966,266.459,290.966z"/>
<g>
</g>
<g>
</g>
<g>
</g>
<g>
</g>
<g>
</g>
<g>
</g>
<g>
</g>
<g>
</g>
<g>
</g>
<g>
</g>
<g>
</g>
<g>
</g>
<g>
</g>
<g>
</g>
<g>
</g>
</svg>
